<?xml version="1.0" encoding="UTF-8"?><svg width="96" height="96" viewBox="0 0 33.18 33.18" xmlns="http://www.w3.org/2000/svg"><path fill="#136aec" d="M0 0h33.18v33.18H0Z"/><path fill="#ffffff" d="M24.38 8.1q-.37-.23-.88-.44-.5-.22-1.06-.4-.56-.16-1.13-.24-.56-.1-1.07-.1-.55 0-1.04.1-.48.1-.84.3-.35.2-.57.54-.21.32-.24.77-.02.52.18.9.21.4.58.71.39.32.9.62l1.15.62q1.73.96 2.53 2.07.82 1.1.74 2.62-.05 1.02-.48 1.86-.41.84-1 1.48-.58.62-1.25 1.06-.64.44-1.17.69.4.59.64 1.3.25.68.2 1.52-.05 1.08-.54 2.08-.47 1-1.4 1.77-.91.77-2.3 1.24-1.37.47-3.2.47-.67 0-1.42-.08-.73-.09-1.45-.24-.71-.15-1.34-.37-.61-.22-1.02-.47l1.02-3.71q.4.29.92.55.54.27 1.16.47.6.2 1.26.34.64.12 1.28.12.73 0 1.25-.15.53-.17.88-.42t.52-.58q.18-.33.2-.68.03-.52-.24-.93-.24-.42-.66-.77-.4-.35-.93-.64l-1.04-.59q-.6-.35-1.15-.8-.55-.46-.96-1.03-.39-.57-.6-1.24-.22-.69-.18-1.5.05-1.05.43-1.84.38-.8.9-1.36.56-.57 1.18-.96.64-.4 1.21-.65-.44-.63-.75-1.35-.32-.72-.27-1.68.07-1.36.66-2.4.6-1.04 1.6-1.73 1-.7 2.29-1.06 1.31-.35 2.79-.35.54 0 1.14.07.62.05 1.23.17.62.1 1.2.28.58.17 1.05.4zm-4.82 8.83q.02-.27-.04-.54-.05-.27-.25-.56-.2-.3-.61-.62-.39-.33-1.07-.7l-.54-.3-.59-.4q-.72.33-1.27.92-.53.58-.57 1.34-.02.4.03.7.07.3.27.6.2.28.58.58.38.29.99.66.27.18.58.35.33.17.65.4.35-.17.66-.4.34-.25.59-.57.25-.32.4-.7.17-.36.2-.76z"/></svg>
