<svg viewBox="0 0 16 16" width="16" height="16" class="link-icon">
    <path d="m7.78 3.27 1.25-1.25a3.5 3.5 0 1 1 4.95 4.96l-2.5 2.5a3.5 3.5 0 0 1-4.95 0 .75.75 0 0 1 .01-1.05.75.75 0 0 1 1.05-.01 2 2 0 0 0 2.83 0l2.5-2.5a2 2 0 0 0-2.83-2.84L8.84 4.33a.75.75 0 0 1-1.05-.01.75.75 0 0 1-.01-1.05Zm-4.7 9.64a2 2 0 0 0 2.83 0l1.25-1.24a.75.75 0 0 1 1.05.01.75.75 0 0 1 .01 1.05l-1.24 1.25a3.5 3.5 0 1 1-4.95-4.95l2.5-2.5a3.5 3.5 0 0 1 4.95 0 .75.75 0 0 1-.02 1.04.75.75 0 0 1-1.05.02 2 2 0 0 0-2.82 0l-2.5 2.5a2 2 0 0 0 0 2.83Z"/>
</svg>
