<?xml version="1.0" encoding="UTF-8" standalone="no"?>
<!-- Generator: Adobe Illustrator 15.0.0, SVG Export Plug-In . SVG Version: 6.00 Build 0)  -->

<svg
   version="1.1"
   x="0px"
   y="0px"
   width="403.50897"
   height="242.14481"
   viewBox="0 0 489.37268 293.67142"
   enable-background="new 0 0 495.081 297.096"
   xml:space="preserve"
   id="svg10"
   sodipodi:docname="mr-ouch.svg"
   inkscape:version="1.1 (c68e22c387, 2021-05-23)"
   inkscape:export-filename="D:\ssmitelli\cyghome\projects\scottsmitelli.com\src\content\articles\fake-fixation\mr-ouch.png"
   inkscape:export-xdpi="219.83"
   inkscape:export-ydpi="219.83"
   xmlns:inkscape="http://www.inkscape.org/namespaces/inkscape"
   xmlns:sodipodi="http://sodipodi.sourceforge.net/DTD/sodipodi-0.dtd"
   xmlns="http://www.w3.org/2000/svg"
   xmlns:svg="http://www.w3.org/2000/svg"><defs
   id="defs14" /><sodipodi:namedview
   id="namedview12"
   pagecolor="#ffffff"
   bordercolor="#666666"
   borderopacity="1.0"
   inkscape:pageshadow="2"
   inkscape:pageopacity="0.0"
   inkscape:pagecheckerboard="true"
   showgrid="false"
   inkscape:zoom="2.5917669"
   inkscape:cx="130.99172"
   inkscape:cy="120.76703"
   inkscape:window-width="1280"
   inkscape:window-height="962"
   inkscape:window-x="-8"
   inkscape:window-y="-8"
   inkscape:window-maximized="1"
   inkscape:current-layer="svg10"
   fit-margin-top="0"
   fit-margin-left="0"
   fit-margin-right="0"
   fit-margin-bottom="0" />

<g
   id="Layer_1"
   transform="translate(-3,-2)">

</g>

<g
   id="Layer_2"
   transform="translate(-3,-2)">

	<g
   id="g7">

		<path
   d="m 253.44,200.651 -43.286,-31.434 46.635,6.441 -7.472,-20.355 60.033,7.73 -6.956,-23.189 72.916,-6.699 1.031,-1.031 -109.504,-22.158 2.319,21.127 L 237.98,124.9 250.605,49.407 222.78,92.952 212.473,73.628 197.787,97.074 186.45,59.972 208.609,67.959 179.751,2 181.297,35.495 159.654,26.992 163.519,57.91 96.271,16.428 121.521,51.47 101.682,50.954 126.159,84.449 74.113,75.689 96.014,57.911 3,55.077 l 44.832,16.748 -17.52,15.201 29.115,8.502 -56.169,43.286 50.5,-14.171 -6.441,20.354 28.342,-6.441 -27.054,32.464 -13.14,-24.735 -24.477,82.449 28.342,-31.691 5.668,18.293 28.084,-30.661 9.276,37.36 13.656,-17.521 27.569,25.766 -28.6,3.607 71.371,44.831 -27.312,-34.783 28.857,-2.834 -28.857,-30.401 36.845,3.092 -20.355,-22.673 34.268,2.319 14.944,10.306 -20.87,11.595 95.847,13.398 -38.648,-19.839 z m -98.704,-80.75 c 0,0 0.601,-0.688 1.889,-0.602 1.289,0.086 7.215,0.945 7.215,0.945 0,0 0.945,0.688 1.89,-0.343 0.945,-1.031 4.037,-4.123 4.896,-6.871 0.859,-2.749 -0.257,-5.239 -0.257,-5.239 0,0 0.171,-0.602 0.515,-1.031 0.344,-0.43 6.184,-6.957 6.184,-6.957 0,0 2.062,-0.429 2.405,0.773 0.344,1.202 1.89,13.484 1.89,13.484 0,0 0.343,0.602 -0.429,1.031 -0.773,0.43 -12.111,10.994 -12.111,10.994 0,0 -0.772,0.516 -1.632,0.516 -0.859,0 -17.006,0.429 -17.006,0.429 0,0 -1.289,0.516 -1.289,-1.545 z m -56.171,-3.779 0.343,-14.945 c 0.602,-0.859 1.804,-0.258 1.804,-0.258 0,0 6.785,6.184 7.559,6.614 0.772,0.43 0.343,1.889 0.343,1.889 0,0 -0.172,6.185 -0.258,7.215 -0.085,1.03 0.687,1.717 0.687,1.717 0,0 5.669,3.607 6.27,3.693 0.602,0.086 1.289,-0.086 1.289,-0.086 0,0 3.607,-1.202 4.638,-1.288 1.03,-0.086 2.233,0.43 2.233,0.43 0,0 3.693,3.521 4.123,4.466 0.429,0.945 -0.773,1.117 -0.773,1.117 0,0 -11.681,0.601 -12.712,0.687 -1.03,0.086 -2.061,-0.344 -2.061,-0.344 0,0 -11.251,-7.987 -12.454,-8.761 -1.203,-0.772 -1.031,-2.146 -1.031,-2.146 z m 82.539,51.448 c -1.46,0 -12.283,-1.289 -12.283,-1.289 l -6.27,-0.859 c 0,0 -1.632,0.43 -1.89,-1.718 -0.258,-2.147 -0.344,-2.92 -0.344,-2.92 0,0 0,-1.374 -1.718,-1.116 -1.718,0.257 -10.049,1.46 -15.632,2.92 0,0 -0.773,1.288 -1.632,0.343 -0.859,-0.945 -3.951,-3.35 -3.951,-3.35 0,0 -0.859,-1.289 -2.577,-0.687 -1.717,0.601 -12.54,4.81 -12.54,4.81 0,0 -2.147,1.46 -3.865,0 -1.717,-1.46 -2.061,-3.779 -2.061,-3.779 0,0 -1.289,-2.233 -2.405,-1.975 -1.117,0.258 -7.816,2.748 -11.681,4.724 -3.865,1.976 -5.669,2.834 -5.84,1.117 0,0 6.527,-13.312 14.773,-19.497 l 2.061,1.804 c 0,0 0.602,1.202 2.233,0 1.632,-1.203 9.62,-4.982 13.055,-6.185 0,0 1.632,-0.515 1.632,0.344 0,0.859 0,1.203 0,1.203 0,0 -0.429,1.889 1.288,1.889 1.718,0 20.957,0.773 21.73,1.031 0.773,0.258 1.718,0.859 1.375,1.546 -0.344,0.687 -1.46,1.374 -0.429,1.889 1.03,0.516 8.503,4.466 12.024,5.497 3.521,1.031 5.067,2.319 4.123,3.35 -0.944,1.031 -0.43,0.859 -0.43,0.859 0,0 -0.515,0.859 0.859,1.546 1.375,0.687 8.16,3.779 10.65,6.785 0.003,0 1.205,1.718 -0.255,1.718 z"
   id="path3" />

		<path
   d="m 492.337,121.848 c -0.285,-0.859 -0.4,-4.123 -0.285,-5.841 0.113,-1.717 -0.344,-6.756 -1.604,-8.875 -1.26,-2.119 -4.236,-8.932 -12.482,-14.716 -8.246,-5.783 -11.967,1.489 -13.799,1.432 -1.834,-0.057 -3.838,-0.515 -5.154,0.515 -1.316,1.031 -1.604,0.63 -2.92,1.775 -1.316,1.145 -2.691,0.687 -4.008,0.286 -1.316,-0.4 -5.783,-2.004 -5.955,-1.66 -0.172,0.343 -0.115,3.378 -0.516,4.18 -0.4,0.801 -2.119,-0.172 -2.576,0.515 -0.459,0.688 0.229,2.634 0.057,4.638 -0.172,2.004 -1.947,1.89 -2.92,1.26 -0.975,-0.63 -2.004,-2.52 -2.92,-1.718 -0.916,0.802 -2.75,1.488 -4.525,2.691 -1.773,1.203 0.518,4.008 1.605,5.554 1.086,1.546 1.373,4.065 0.916,5.726 -0.459,1.66 -1.375,3.092 -4.123,3.149 -2.75,0.057 -6.355,-4.753 -9.791,-7.215 -3.438,-2.462 -11.566,-5.096 -16.777,-6.184 -5.211,-1.088 -15.461,-4.123 -15.918,-4.409 -0.459,-0.286 -1.146,0.057 -1.146,0.057 -2.689,1.375 -5.039,0.63 -6.469,0.516 -1.432,-0.114 -3.664,-2.233 -3.664,-2.233 0,0 -16.721,-15.346 -17.465,-15.976 -0.744,-0.63 -0.859,-1.431 -0.859,-1.431 0,0 0,-2.291 -0.059,-3.035 -0.057,-0.745 -0.4,-2.462 -0.229,-2.691 0.172,-0.229 0.402,-2.119 0.287,-2.52 -0.115,-0.401 0.859,-1.431 1.145,-1.947 0.287,-0.515 -0.229,-1.031 -0.973,-1.146 -0.744,-0.114 -1.891,0.401 -2.404,1.146 -0.518,0.744 -0.518,1.546 -0.574,2.176 -0.056,0.63 -0.857,2.004 -1.604,2.119 -0.744,0.114 -2.633,-2.291 -2.633,-2.291 0,0 -6.471,-7.1 -6.871,-7.386 -0.4,-0.287 -1.66,-0.859 -2.062,0.229 -0.4,1.088 1.719,4.352 1.719,4.352 0,0 2.176,2.863 1.891,3.321 -0.287,0.458 -1.375,0.172 -1.375,0.172 0,0 -6.07,-3.436 -6.643,-3.722 -0.572,-0.286 -2.004,-0.744 -2.52,-0.229 -0.514,0.516 0.287,1.031 0.744,1.947 0.459,0.917 5.039,4.008 5.783,4.581 0.744,0.573 0.744,1.432 0.23,1.546 -0.516,0.115 -3.666,-0.802 -3.666,-0.802 0,0 -3.949,-1.088 -4.352,-1.03 -0.4,0.057 -1.201,0.629 -0.801,1.431 0.4,0.802 2.461,1.833 2.461,1.833 0,0 5.383,1.775 5.67,2.119 0.285,0.343 -0.402,0.515 -0.402,0.515 l -5.268,1.317 c 0,0 -1.602,0.114 -1.432,1.26 0.174,1.146 2.004,0.801 2.004,0.801 0,0 3.666,0 4.811,0 1.146,0 2.635,0.802 3.15,1.661 0.514,0.859 1.488,0.687 2.289,1.088 0.801,0.4 4.924,2.806 4.924,2.806 l 8.303,9.219 c 0,0 9.906,10.077 12.141,12.253 2.232,2.176 7.443,3.78 7.443,3.78 1.26,2.29 6.07,4.867 6.07,4.867 0,0 5.094,1.661 5.781,2.061 0.688,0.401 -0.285,1.146 -0.285,1.146 l -1.775,1.145 c 0,0 -4.094,2.062 -8.389,5.411 -4.295,3.349 -15.633,13.657 -19.324,19.411 -3.693,5.754 -10.479,9.963 -14,12.11 -3.521,2.147 -13.916,6.872 -21.73,10.651 -7.816,3.779 -17.865,12.196 -21.129,15.374 -3.264,3.178 -2.49,6.613 -0.516,12.196 1.976,5.583 3.178,6.872 3.607,7.559 0.429,0.687 5.154,7.988 5.154,7.988 l 9.533,15.804 c 0,0 6.527,11.509 8.332,14.257 1.803,2.749 3.176,1.202 3.176,1.202 0,0 1.031,-0.858 3.094,-1.374 2.061,-0.515 2.576,2.405 3.779,5.067 1.201,2.663 1.287,7.301 0.686,13.055 -0.6,5.755 2.406,7.386 5.154,7.386 2.748,0 7.129,-4.724 9.619,-8.417 2.492,-3.694 0.773,-10.479 0.172,-14 -0.601,-3.521 0.172,-5.669 0.945,-6.528 0.773,-0.859 0.258,-2.405 -1.289,-4.638 -1.547,-2.233 -3.951,-3.608 -5.41,-8.16 -1.461,-4.552 -5.154,-8.589 -6.014,-10.822 -0.857,-2.233 -6.527,-10.307 -7.9,-12.11 -1.375,-1.804 -1.375,-2.749 -1.375,-2.749 0,0 -0.344,-3.006 -0.859,-3.779 -0.515,-0.773 -1.115,-1.632 -0.172,-2.577 0.945,-0.945 8.762,-2.405 11.51,-2.491 2.748,-0.086 13.227,-2.663 13.828,-2.749 0.601,-0.086 0.773,0.429 0.773,0.429 0,0 0.172,9.276 0.172,10.393 0,1.116 -0.344,10.65 -0.945,15.46 -0.602,4.81 0.344,11.853 1.031,15.03 0.688,3.178 6.957,18.981 6.957,18.981 0,0 5.582,16.663 5.754,18.208 0.172,1.546 -1.889,6.614 -1.889,7.902 0,1.289 -2.234,7.301 -1.891,10.049 0.344,2.748 2.748,4.466 6.699,4.123 3.951,-0.344 9.191,-6.441 10.221,-8.074 1.031,-1.632 1.117,-1.718 1.289,-3.607 0.172,-1.89 0.773,-3.35 0.773,-3.35 0,0 2.662,-5.411 3.092,-7.559 0.43,-2.147 0.43,-4.552 0,-5.754 -0.43,-1.202 0,-1.717 0,-1.717 l 1.975,-1.546 c 0,0 2.232,-2.062 2.75,-2.834 0.514,-0.773 -0.773,-4.123 -0.773,-4.123 l -4.553,-11.939 c 0,0 -1.459,-4.724 -3.521,-11.337 -2.061,-6.613 -0.945,-10.221 -0.945,-10.221 0,0 1.461,-9.62 2.748,-14 1.289,-4.38 2.777,-15.059 2.777,-15.059 0,0 0.23,-5.783 2.979,-12.082 2.748,-6.298 8.359,-8.188 10.25,-8.989 1.889,-0.802 7.959,-4.123 12.768,-7.158 4.811,-3.035 13.113,-6.298 13.971,-6.47 0.859,-0.172 0.975,0.344 0.975,0.344 l 5.668,7.787 6.871,9.047 c 0,0 1.318,1.89 2.234,2.233 0.916,0.343 3.092,-1.546 3.949,-1.031 0.859,0.516 1.09,2.004 0.975,4.81 -0.113,2.806 1.088,11.566 1.203,13.055 0.113,1.488 -0.115,10.421 -0.115,10.936 0,0.515 -2.863,2.462 -4.295,3.035 -1.432,0.573 -2.463,-0.114 -4.064,0.229 -1.604,0.343 -3.035,0 -3.436,-0.115 -0.402,-0.115 -0.916,0.229 -0.746,1.489 0.174,1.26 1.66,1.718 3.322,1.546 1.66,-0.172 2.863,0.229 3.492,0.458 0.631,0.229 0.229,1.26 0.229,1.26 l -2.576,3.779 -3.836,5.325 c 0,0 -2.691,2.405 -1.547,3.378 1.146,0.973 3.094,-0.973 3.094,-0.973 0,0 4.523,-4.123 4.752,-4.18 0.229,-0.057 0.801,0.058 0.801,0.573 0,0.516 -0.572,3.092 -0.572,3.092 0,0 -1.375,4.065 -1.775,4.695 -0.4,0.63 -0.514,2.348 0.631,2.348 1.145,0 1.775,-1.202 1.775,-1.202 l 2.004,-4.352 c 0,0 1.029,-2.634 1.488,-2.634 0.457,0 0.744,1.202 0.859,1.546 0.113,0.344 0.057,3.779 0.057,3.779 0,0 0,3.092 0.859,3.493 0.859,0.401 1.26,-0.458 1.717,-1.317 0.459,-0.859 0.516,-2.52 0.516,-2.52 0,0 0.059,-3.035 0.115,-4.18 0.056,-1.145 0.572,-1.489 1.373,-0.859 0.803,0.63 0.975,2.577 1.547,3.836 0.572,1.259 2.232,1.374 2.633,1.317 0.402,-0.057 0,-0.516 0,-1.203 0,-0.687 -0.857,-3.55 -0.857,-3.55 0,0 -0.631,-2.233 -0.631,-2.691 0,-0.458 0.516,-1.89 1.316,-3.092 0.803,-1.202 0.688,-2.576 0.688,-2.576 0,0 -0.057,-2.291 0.287,-5.612 0.344,-3.321 2.691,-14.544 3.607,-18.094 0.916,-3.55 2.348,-15.117 2.348,-18.38 0,-3.263 -2.92,-6.699 -3.148,-7.043 -0.23,-0.344 -1.604,-4.352 -2.291,-6.413 -0.688,-2.062 -4.41,-7.33 -5.154,-9.734 -0.744,-2.404 -5.725,-6.642 -8.244,-8.017 -2.52,-1.374 -4.639,-4.981 -4.523,-5.84 0.113,-0.859 0.859,-1.775 5.725,-1.89 4.867,-0.114 9.85,2.405 17.693,3.321 7.846,0.916 14.086,-4.065 17.693,-7.959 3.605,-3.89 5.037,-8.356 4.75,-9.215 z m -37.104,-19.21 c 0,0 -1.918,-2.004 -1.746,-3.35 0.172,-1.346 2.52,-0.831 2.863,0.629 0.344,1.461 -0.486,3.006 -1.117,2.721 z"
   id="path5" />

	</g>

</g>

</svg>
